<svg xmlns="http://www.w3.org/2000/svg" height="48" viewBox="0 96 960 960" width="48"><path d="M288.752 940q-24.339 0-40.546-16.748Q232 906.504 232 881.752t16.441-41.252q16.441-16.5 40.763-16.5 24.321 0 41.059 16.748Q347 857.496 347 882.248T330.252 923.5q-16.748 16.5-41.5 16.5Zm380 0q-24.34 0-40.546-16.748T612 881.752Q612 857 628.441 840.5q16.441-16.5 40.763-16.5 24.321 0 41.059 16.748Q727 857.496 727 882.248T710.252 923.5q-16.748 16.5-41.5 16.5ZM227 303l112 235h266q9 0 16.5-4.5T633 521l105-190q6-11 1-19.5t-17-8.5H227Zm-18-35h527q26.511 0 39.755 21.5Q789 311 777 334L663.359 541.275q-8.416 13.82-22.839 22.773Q626.097 573 610.206 573H320l-48 87q-7 12 0 26t22 14h434v35H286q-35 0-50-26.5t0-55.5l63-114-150-316H76v-35h95l38 80Zm130 270h285-285Z"/></svg>